<?xml version="1.0" encoding="UTF-8" standalone="no"?>
<svg
   xmlns:dc="http://purl.org/dc/elements/1.1/"
   xmlns:cc="http://creativecommons.org/ns#"
   xmlns:rdf="http://www.w3.org/1999/02/22-rdf-syntax-ns#"
   xmlns:svg="http://www.w3.org/2000/svg"
   xmlns="http://www.w3.org/2000/svg"
   xmlns:sodipodi="http://sodipodi.sourceforge.net/DTD/sodipodi-0.dtd"
   xmlns:inkscape="http://www.inkscape.org/namespaces/inkscape"
   sodipodi:docname="logo.svg"
   inkscape:version="1.0 (4035a4fb49, 2020-05-01)"
   id="svg8"
   version="1.1"
   viewBox="0 0 210 297"
   height="297mm"
   width="210mm">
  <defs
     id="defs2">
    <rect
       x="564.44916"
       y="42.380392"
       width="62.220032"
       height="29.934122"
       id="rect919" />
    <rect
       id="rect959"
       height="25.129567"
       width="62.982169"
       y="104.65233"
       x="661.2053" />
    <rect
       id="rect943"
       height="14.385912"
       width="231.61261"
       y="-98.922465"
       x="498.44302" />
    <rect
       id="rect881"
       height="44.88562"
       width="66.275731"
       y="-70.740277"
       x="525.23937" />
    <rect
       x="661.20532"
       y="104.65233"
       width="62.98217"
       height="25.129566"
       id="rect959-3" />
    <rect
       x="661.20532"
       y="104.65233"
       width="62.98217"
       height="25.129566"
       id="rect974" />
  </defs>
  <sodipodi:namedview
     inkscape:guide-bbox="true"
     showguides="true"
     inkscape:window-maximized="1"
     inkscape:window-y="0"
     inkscape:window-x="49"
     inkscape:window-height="1043"
     inkscape:window-width="1871"
     showgrid="false"
     inkscape:document-rotation="0"
     inkscape:current-layer="layer1"
     inkscape:document-units="mm"
     inkscape:cy="298.18248"
     inkscape:cx="125.75033"
     inkscape:zoom="1"
     inkscape:pageshadow="2"
     inkscape:pageopacity="0.0"
     borderopacity="1.0"
     bordercolor="#666666"
     pagecolor="#ffffff"
     id="base" />
  <metadata
     id="metadata5">
    <rdf:RDF>
      <cc:Work
         rdf:about="">
        <dc:format>image/svg+xml</dc:format>
        <dc:type
           rdf:resource="http://purl.org/dc/dcmitype/StillImage" />
        <dc:title></dc:title>
      </cc:Work>
    </rdf:RDF>
  </metadata>
  <g
     id="layer1"
     inkscape:groupmode="layer"
     inkscape:label="Layer 1">
    <g
       transform="translate(32.259973,77.124406)"
       id="g1050-2-3-9-3">
      <path
         id="path1071-3-5-6-5-6-3-7-2-1-7-6-2-7"
         d="m 25.856447,-17.629321 c -1.661454,-1.975376 -3.589314,-4.108101 -5.880663,-6.521976 -2.51318,-2.647141 -3.09153,-2.691522 -3.379531,-0.258091 -0.371549,3.13934 -0.480129,3.444859 -1.301639,3.66277 -0.435211,0.115419 -1.174761,0.7268 -1.64343,1.358604 -0.535591,0.722 -1.138801,1.152578 -1.623841,1.159049 -0.424439,0.006 -1.322739,0.544111 -1.996239,1.196531 -1.4993901,1.452528 -2.1049998,1.499838 -2.5771485,0.201549 -0.1995807,-0.54882 -0.4265897,-0.997 -0.5044517,-0.995971 -0.0779,0.0011 -0.7214974,0.396941 -1.4303291,0.879761 -1.5772887,1.074391 -3.1303777,1.056711 -3.3011977,-0.0376 -0.10314,-0.660739 -0.292711,-0.716331 -2.18110094,-0.639331 -2.06112986,0.0841 -2.06797986,0.0811 -2.01752986,-0.83551 0.0447,-0.8133 -0.0657,-0.918289 -0.95323,-0.906438 -1.6646601,0.0223 -2.4065901,-0.542814 -2.1962801,-1.672683 0.12118,-0.651092 0.0455,-0.973122 -0.22806,-0.970722 -0.22515,0.0021 -0.9754001,-0.145468 -1.6672001,-0.32766 -1.24485,-0.327848 -1.74651,-1.296778 -0.93793,-1.81156 0.54538,-0.347239 0.0735,-0.742169 -1.13846,-0.952788 -0.62164,-0.10805 -1.41684,-0.50473 -1.7671,-0.88151 -0.627141,-0.67401 -0.622631,-0.697621 0.26851,-1.485101 0.49792,-0.440031 0.90323,-0.9546 0.90073,-1.14346 -0.003,-0.18887 -0.59774,-0.635701 -1.32208,-0.993521 -0.724641,-0.357539 -1.663691,-1.122778 -2.086811,-1.700469 l -0.769301,-1.050391 0.943911,-0.834059 c 0.82073,-0.725289 0.87232,-0.872879 0.39538,-1.13148 -1.389191,-0.753221 -2.612532,-2.043131 -2.622012,-2.764999 -0.006,-0.4606 0.35514,-1.051692 0.885771,-1.449192 l 0.89618,-0.671348 -1.931641,-1.778341 c -2.073959,-1.909379 -2.36721,-2.76596 -1.28975,-3.76757 0.363481,-0.33725 0.65884,-0.72253 0.657051,-0.85548 -0.002,-0.13296 -0.84357,-0.80399 -1.87057,-1.49132 -2.301261,-1.54 -3.40608,-3.10797 -2.89076,-4.10259 0.19568,-0.37766 0.50087,-0.68861 0.67819,-0.69099 0.6663,-0.009 0.27064,-0.91362 -0.87049,-1.99044 -0.693501,-0.65436 -1.27616,-1.58568 -1.411051,-2.25524 -0.19724,-0.97896 -0.100269,-1.24669 0.684501,-1.88978 l 0.914289,-0.74927 -1.06599,-1.18189 c -0.586269,-0.65006 -1.38736,-1.88284 -1.78011,-2.73958 -0.687,-1.49862 -0.69176,-1.58306 -0.12546,-2.22591 0.52041,-0.59077 0.53246,-0.75248 0.10382,-1.39508 -0.26666,-0.39976 -0.82803,-1.39912 -1.24749,-2.22076 l -0.76265,-1.49388 1.14863,-0.11916 c 0.77422,-0.0804 1.70706,0.17518 2.861851,0.78383 1.56919,0.82707 1.739439,0.85459 2.02528,0.32742 0.50774,-0.93642 2.075149,-0.71826 3.74473,0.52119 l 1.51197,1.12246 0.75138,-0.82158 c 0.898641,-0.98262 1.674971,-0.85372 3.169782,0.52616 1.22068,1.12683 1.53818,1.16792 2.08268,0.26953 0.82677,-1.36411 3.0372701,-0.46519 4.3766902,1.77982 0.38017,0.6372 0.42914,0.62017 1.2494399,-0.4345 1.3115701,-1.68629 2.24508999,-1.51061 4.5602909,0.85821 1.064148,1.08874 2.03596,1.97822 2.159629,1.97657 0.12363,-0.002 0.66665,-0.38493 1.2065797,-0.85173 0.5399107,-0.46683 1.1201204,-0.85057 1.2892894,-0.85284 0.6733197,-0.009 3.1615972,2.54782 3.7729489,3.87692 0.357201,0.77651 0.74804,1.41053 0.86854,1.40891 0.120499,-0.002 0.6937,-0.47541 1.273788,-1.05289 0.760302,-0.75689 1.245151,-0.9923 1.737061,-0.84338 0.602959,0.18253 1.583392,1.76793 2.245331,3.63085 0.21631,0.60877 0.25232,0.60521 0.979678,-0.0967 0.415642,-0.4004 0.998361,-0.73188 1.295652,-0.73585 0.587168,-0.008 1.71364,1.36453 2.103138,2.56224 0.288052,0.88579 0.761961,0.94281 1.572731,0.18912 0.32525,-0.30244 0.83016,-0.46184 1.121921,-0.35433 0.66521,0.24512 1.85611,2.73091 1.881881,3.92809 0.0264,1.2301 0.437308,1.37899 1.863449,0.67536 1.178989,-0.58169 1.231699,-0.58 1.709799,0.0551 0.271319,0.36045 0.425712,0.95707 0.343061,1.32586 -0.0826,0.36877 -0.24444,1.23316 -0.359561,1.92087 l -0.209341,1.25038 1.288241,-0.0949 c 1.223092,-0.0902 1.294169,-0.0412 1.405601,0.96845 0.0645,0.58489 -0.116961,1.53179 -0.403341,2.10421 -0.63051,1.260291 -0.41647,1.68826 0.83598,1.671509 2.04012,-0.0273 1.3916,2.261801 -1.15067,4.06146 -1.432349,1.013942 -1.496409,1.12087 -0.91793,1.532112 0.34204,0.243139 0.743522,0.44046 0.892202,0.438468 0.148648,-0.0021 0.27423,0.290822 0.279048,0.650682 0.006,0.41893 -0.51108,0.968309 -1.43654,1.527418 -1.195879,0.722471 -1.416841,1.011711 -1.28058,1.676241 0.130601,0.636961 -0.0482,0.916879 -0.864659,1.352979 -0.600831,0.32095 -1.025821,0.81299 -1.020892,1.181981 0.006,0.452961 -0.439377,0.796481 -1.571447,1.211911 -0.868921,0.318849 -1.851372,0.72812 -2.183181,0.909489 -0.33179,0.181369 -1.2711,0.238691 -2.087311,0.1274 -1.09162,-0.14881 -1.482489,-0.0903 -1.47833,0.221091 0.003,0.232849 1.19348,1.70049 2.64527,3.261439 1.959353,2.106666 3.975049,4.375526 5.617096,6.304399 -1.463662,0.473448 0,0 -1.463662,0.473448 z"
         style="fill:#008900;fill-opacity:1;stroke-width:0.334211"
         sodipodi:nodetypes="ccscccccccscccccccccccccccscccccccsccccccssssccssscsssssccccccsssccscscsccccccscsccccsccccccccc" />
      <path
         sodipodi:nodetypes="ccscccccccscccccccccccccccscccccccsccccccssssccssscsssssccccccsssccscscsccccccscsccccsccccccccc"
         style="fill:#7dd52f;fill-opacity:1;stroke-width:0.334211"
         d="m 25.797583,-20.192985 c -1.661455,-1.975376 -3.589313,-4.1081 -5.880663,-6.521977 -2.51318,-2.64714 -3.09153,-2.69152 -3.379531,-0.25809 -0.371549,3.13934 -0.480129,3.44486 -1.301639,3.66277 -0.435211,0.11542 -1.174761,0.7268 -1.64343,1.358604 -0.535591,0.722001 -1.138801,1.152578 -1.623841,1.15905 -0.424439,0.006 -1.322739,0.54411 -1.9962387,1.19653 -1.4993913,1.452528 -2.1050013,1.499839 -2.5771503,0.201549 -0.199581,-0.54882 -0.42659,-0.997 -0.504452,-0.995971 -0.0779,0.0011 -0.721498,0.396941 -1.43033,0.879761 -1.577289,1.074391 -3.130378,1.056711 -3.301198,-0.0376 -0.10314,-0.660739 -0.292711,-0.71633 -2.18110104,-0.639331 -2.06112996,0.0841 -2.06797996,0.0811 -2.01752996,-0.835509 0.0447,-0.8133 -0.0657,-0.91829 -0.95323,-0.906439 -1.66466,0.0223 -2.40659,-0.542814 -2.19628,-1.672684 0.12118,-0.65109 0.0455,-0.97312 -0.22806,-0.97072 -0.22515,0.002 -0.9754,-0.14547 -1.6672,-0.32766 -1.24485,-0.32785 -1.74651,-1.29678 -0.93793,-1.81156 0.54538,-0.34724 0.0735,-0.74217 -1.13846,-0.95279 -0.62164,-0.10805 -1.41684,-0.50473 -1.7671,-0.88151 -0.62714,-0.67401 -0.62263,-0.69762 0.26851,-1.4851 0.49792,-0.44003 0.90323,-0.9546 0.90073,-1.14346 -0.003,-0.18887 -0.59774,-0.6357 -1.32208,-0.99352 -0.72464,-0.35754 -1.66369,-1.12278 -2.08681,-1.70047 l -0.7693,-1.05039 0.94391,-0.83406 c 0.82073,-0.72529 0.87232,-0.87288 0.39538,-1.13148 -1.38919,-0.75322 -2.61253,-2.04313 -2.62201,-2.765 -0.006,-0.4606 0.35514,-1.05169 0.88577,-1.44919 l 0.89618,-0.67135 -1.93164,-1.77834 c -2.073959,-1.90938 -2.36721,-2.76596 -1.28975,-3.76757 0.363481,-0.33725 0.65884,-0.72253 0.657051,-0.85548 -0.002,-0.13296 -0.84357,-0.80399 -1.87057,-1.49132 -2.301261,-1.54 -3.40608,-3.10797 -2.89076,-4.10259 0.19568,-0.37766 0.50087,-0.68861 0.67819,-0.69099 0.6663,-0.009 0.27064,-0.91362 -0.87049,-1.99044 -0.693501,-0.65436 -1.27616,-1.58568 -1.411051,-2.25524 -0.19724,-0.97896 -0.100269,-1.24669 0.684501,-1.88978 l 0.914289,-0.74927 -1.06599,-1.18189 c -0.586269,-0.65006 -1.38736,-1.88284 -1.78011,-2.73958 -0.687,-1.49862 -0.69176,-1.58306 -0.12546,-2.22591 0.52041,-0.59077 0.53246,-0.75248 0.10382,-1.39508 -0.26666,-0.39976 -0.82803,-1.39912 -1.24749,-2.22076 l -0.76265,-1.49388 1.14863,-0.11916 c 0.77422,-0.0804 1.70706,0.17518 2.861851,0.78383 1.56919,0.82707 1.739439,0.85459 2.02528,0.32742 0.50774,-0.93642 2.075149,-0.71826 3.74473,0.52119 l 1.511969,1.12246 0.75138,-0.82158 c 0.89864,-0.98262 1.67497,-0.85372 3.16978,0.52616 1.22068,1.12683 1.53818,1.16792 2.08268,0.26953 0.82677,-1.36411 3.03727,-0.46519 4.37669,1.77982 0.38017,0.6372 0.42914,0.62017 1.24944,-0.4345 1.31157,-1.68629 2.24509,-1.51061 4.560291,0.85821 1.064148,1.08874 2.03596,1.97822 2.159629,1.97657 0.12363,-0.002 0.66665,-0.38493 1.20658,-0.85173 0.539911,-0.46683 1.120121,-0.85057 1.28929,-0.85284 0.67332,-0.009 3.1615993,2.54782 3.772951,3.87692 0.357201,0.77651 0.74804,1.41053 0.86854,1.40891 0.120499,-0.002 0.6937,-0.47541 1.273788,-1.05289 0.760302,-0.75689 1.245151,-0.9923 1.737061,-0.84338 0.602959,0.18253 1.583392,1.76793 2.245331,3.63085 0.21631,0.60877 0.25232,0.60521 0.979678,-0.0967 0.415642,-0.4004 0.998361,-0.73188 1.295652,-0.73585 0.587168,-0.008 1.71364,1.36453 2.103138,2.56224 0.288052,0.88579 0.761961,0.94281 1.572731,0.18912 0.32525,-0.30244 0.83016,-0.46184 1.121921,-0.35433 0.66521,0.24512 1.85611,2.73091 1.881881,3.92809 0.0264,1.2301 0.437308,1.37899 1.863449,0.67536 1.178989,-0.58169 1.231699,-0.58 1.709799,0.0551 0.271319,0.36045 0.425712,0.95707 0.343061,1.32586 -0.0826,0.36877 -0.24444,1.23316 -0.359561,1.92087 l -0.209341,1.25038 1.288241,-0.0949 c 1.223092,-0.0902 1.294169,-0.0412 1.405601,0.96845 0.0645,0.58489 -0.116961,1.53179 -0.403341,2.10421 -0.63051,1.26029 -0.41647,1.68826 0.83598,1.67151 2.04012,-0.0273 1.3916,2.2618 -1.15067,4.06146 -1.432349,1.01394 -1.496409,1.12087 -0.91793,1.53211 0.34204,0.24314 0.743522,0.44046 0.892202,0.43847 0.148648,-0.002 0.27423,0.29082 0.279048,0.65068 0.006,0.41893 -0.51108,0.96831 -1.43654,1.52742 -1.195879,0.72247 -1.416841,1.01171 -1.28058,1.67624 0.130601,0.63696 -0.0482,0.91688 -0.864659,1.35298 -0.600831,0.32095 -1.025821,0.81299 -1.020892,1.18198 0.006,0.45296 -0.439377,0.79648 -1.571447,1.21191 -0.868921,0.31885 -1.851372,0.72812 -2.183181,0.90949 -0.33179,0.18137 -1.2711,0.23869 -2.087311,0.1274 -1.09162,-0.14881 -1.482489,-0.0903 -1.47833,0.22109 0.003,0.23285 1.19348,1.70049 2.64527,3.26144 1.959352,2.106666 3.97505,4.375526 5.617096,6.3044 -1.463662,0.473447 0,0 -1.463662,0.473447 z"
         id="path1071-3-5-6-5-6-3-7-2-0-0-0-5" />
      <path
         style="fill:#008900;fill-opacity:1;stroke-width:0.0405199"
         d="m 5.1606967,-26.685009 c -0.722331,-0.11832 -1.289831,-0.34028 -1.88854,-0.73865 -0.84372,-0.56139 -1.54041,-1.50472 -1.823281,-2.46874 -0.182499,-0.62196 -0.179901,-0.56212 -0.204629,-4.69457 l -0.02381,-3.97094 -4.011469,-0.0233 c -4.32711,-0.0251 -4.13473,-0.0155 -4.80516,-0.24129 -1.08442,-0.36532 -2.10863,-1.26897 -2.6202307,-2.31179 -0.341909,-0.69696 -0.468009,-1.24552 -0.469579,-2.0429 -0.002,-1.27464 0.44024,-2.3559 1.3283397,-3.244 0.62357,-0.62357 1.34315,-1.02135 2.25126,-1.2445 0.33373,-0.082 0.46701,-0.0854 4.29511,-0.1077 2.17286997,-0.0127 3.97347,-0.0378 4.001331,-0.0558 0.0399,-0.0258 0.0509,-0.80129 0.052,-3.64678 0.0011,-1.98771 0.01842,-3.80343 0.0393,-4.03494 0.148119,-1.64346 1.06462,-3.0038 2.511859,-3.72832 1.478172,-0.73999 3.191542,-0.63859 4.58156,0.27115 0.916712,0.59998 1.6392813,1.596 1.9315113,2.66251 l 0.11103,0.4052 0.0208,4.03172 0.0208,4.03172 0.769879,0.0251 c 0.423432,0.0138 2.201241,0.0277 3.950682,0.0309 2.933138,0.005 3.209207,0.0117 3.545487,0.0814 1.824349,0.37807 3.213941,1.77382 3.5947,3.61067 0.11607,0.55993 0.0867,1.51362 -0.0642,2.08582 -0.385062,1.46021 -1.555422,2.70591 -2.984042,3.17615 -0.7058,0.23232 -0.502259,0.22191 -4.821338,0.24638 l -3.991211,0.0226 -0.02209,4.01146 c -0.0217,3.93861 -0.02371,4.01741 -0.109151,4.33877 -0.4236303,1.59336 -1.4279303,2.73749 -2.8860093,3.28778 -0.65961,0.24895 -1.602441,0.34604 -2.28101,0.23489 z"
         id="path889-6-2-3-2-6-5-9-9-6-2-9"
         sodipodi:nodetypes="ssssccsscsssscsssscccsscsssscscsss" />
    </g>
  </g>
</svg>
